<?xml version="1.0" encoding="iso-8859-1"?>
<!-- Generator: Adobe Illustrator 19.0.0, SVG Export Plug-In . SVG Version: 6.00 Build 0)  -->
<svg version="1.1" id="Layer_1" xmlns="http://www.w3.org/2000/svg" xmlns:xlink="http://www.w3.org/1999/xlink" x="0px" y="0px"
	 viewBox="0 0 512 512" style="enable-background:new 0 0 512 512;" xml:space="preserve">
<circle style="fill:#4AB8A1;" cx="256" cy="256" r="256"/>
<path style="fill:#43A691;" d="M475.584,384.572c-0.076-0.736-0.352-1.424-0.828-2.044c-0.076-0.74-0.352-1.432-0.828-2.052
	c-0.076-0.744-0.352-1.436-0.828-2.056c-0.076-0.74-0.352-1.428-0.828-2.048c-0.076-0.736-0.352-1.428-0.82-2.044
	c-0.072-0.74-0.352-1.432-0.828-2.06c-0.072-0.74-0.352-1.432-0.836-2.056c-0.072-0.736-0.352-1.424-0.82-2.044
	c-0.072-0.74-0.352-1.432-0.836-2.052c-0.072-0.744-0.352-1.432-0.82-2.048c-0.072-0.744-0.352-1.436-0.828-2.056
	c-0.072-0.744-0.352-1.436-0.836-2.052c-0.072-0.74-0.352-1.432-0.82-2.052c-0.072-0.74-0.352-1.432-0.836-2.056
	c-0.072-0.736-0.352-1.428-0.82-2.044c-0.072-0.74-0.352-1.432-0.836-2.052c-0.072-0.744-0.352-1.432-0.82-2.048
	c-0.072-0.744-0.352-1.436-0.836-2.06c-0.072-0.74-0.352-1.424-0.82-2.044c-0.072-0.736-0.352-1.428-0.828-2.048
	c-0.064-0.744-0.352-1.436-0.828-2.064c-0.072-0.736-0.352-1.428-0.828-2.044c-0.072-0.74-0.352-1.436-0.828-2.052
	c-0.072-0.744-0.352-1.432-0.828-2.052c-0.072-0.74-0.352-1.432-0.828-2.056c-0.072-0.74-0.352-1.424-0.828-2.044
	c-0.072-0.744-0.352-1.436-0.828-2.056c-0.072-0.74-0.352-1.428-0.828-2.048c-0.072-0.744-0.352-1.436-0.828-2.056
	c-0.072-0.736-0.352-1.428-0.828-2.048c-0.072-0.74-0.352-1.432-0.828-2.052c-0.072-0.74-0.352-1.432-0.828-2.056
	c-0.072-0.74-0.352-1.428-0.828-2.044c-0.072-0.744-0.352-1.436-0.828-2.056c-0.072-0.736-0.352-1.42-0.82-2.04
	c-0.072-0.744-0.352-1.436-0.836-2.064c-0.072-0.74-0.352-1.428-0.816-2.048c-0.076-0.74-0.356-1.436-0.836-2.052
	c-0.076-0.74-0.356-1.432-0.82-2.048c-0.076-0.74-0.356-1.436-0.828-2.052c-0.076-0.744-0.352-1.436-0.836-2.056
	c-0.076-0.744-0.356-1.428-0.82-2.048c-0.076-0.744-0.352-1.436-0.836-2.056c-0.076-0.74-0.352-1.428-0.82-2.048
	c-0.076-0.74-0.352-1.436-0.836-2.052c-0.076-0.74-0.352-1.432-0.82-2.052c-0.076-0.74-0.352-1.432-0.836-2.056
	c-0.076-0.736-0.352-1.428-0.82-2.044c-0.076-0.74-0.352-1.432-0.828-2.052c-0.076-0.736-0.352-1.428-0.828-2.048
	c-0.072-0.74-0.352-1.432-0.828-2.056c-0.072-0.744-0.352-1.436-0.828-2.052c-0.072-0.74-0.352-1.432-0.824-2.052
	c-0.076-0.74-0.356-1.432-0.828-2.056c-0.076-0.736-0.356-1.428-0.828-2.044c-0.076-0.74-0.356-1.432-0.828-2.052
	c-0.076-0.744-0.356-1.432-0.828-2.048c-0.076-0.744-0.352-1.436-0.828-2.056c-0.076-0.744-0.352-1.436-0.828-2.056
	c-0.076-0.74-0.352-1.428-0.828-2.048c-0.076-0.74-0.352-1.432-0.828-2.056c-0.076-0.736-0.352-1.428-0.828-2.044
	c-0.076-0.74-0.352-1.436-0.828-2.052c-0.076-0.74-0.352-1.432-0.828-2.048c-0.076-0.74-0.352-1.436-0.828-2.056
	c-0.076-0.732-0.352-1.42-0.82-2.036c-0.072-0.74-0.352-1.44-0.828-2.06c-0.072-0.74-0.352-1.436-0.836-2.056
	c-0.072-0.736-0.352-1.428-0.82-2.044c-0.072-0.74-0.352-1.436-0.836-2.052c-0.072-0.74-0.352-1.432-0.82-2.048
	c-0.072-0.74-0.352-1.436-0.836-2.056c-0.072-0.736-0.352-1.428-0.82-2.044c-0.072-0.74-0.352-1.436-0.836-2.052
	c-0.072-0.74-0.352-1.432-0.82-2.048c-0.072-0.74-0.352-1.436-0.836-2.056c-0.072-0.736-0.352-1.428-0.82-2.044
	c-0.072-0.74-0.352-1.436-0.828-2.052c-0.072-0.74-0.352-1.436-0.836-2.056c-0.072-0.736-0.352-1.428-0.82-2.044
	c-0.072-0.736-0.352-1.428-0.828-2.044c-0.072-0.74-0.352-1.436-0.828-2.056c-0.072-0.74-0.352-1.436-0.828-2.056
	c-0.072-0.736-0.352-1.428-0.828-2.044c-0.072-0.74-0.352-1.436-0.828-2.052c-0.072-0.74-0.352-1.432-0.828-2.048
	c-0.072-0.74-0.352-1.436-0.828-2.052c-0.072-0.74-0.352-1.436-0.828-2.052c-0.072-0.74-0.352-1.432-0.828-2.048
	c-0.072-0.74-0.352-1.436-0.828-2.052c-0.072-0.736-0.352-1.432-0.828-2.048c-0.072-0.74-0.352-1.436-0.828-2.052
	c-0.072-0.736-0.352-1.432-0.828-2.048c-0.072-0.736-0.352-1.432-0.828-2.048c-0.072-0.736-0.352-1.432-0.828-2.048
	c-0.072-0.732-0.352-1.428-0.816-2.04c-0.076-0.74-0.356-1.44-0.84-2.06c-0.064-0.736-0.344-1.432-0.824-2.048
	c-0.068-0.736-0.348-1.432-0.828-2.048c-0.068-0.736-0.348-1.432-0.82-2.048c-0.076-0.74-0.352-1.436-0.836-2.052
	c-0.068-0.736-0.344-1.432-0.828-2.048c-0.068-0.736-0.344-1.432-0.828-2.048c-0.068-0.736-0.344-1.432-0.828-2.048
	c-0.068-0.736-0.344-1.432-0.828-2.048c-0.068-0.736-0.344-1.432-0.828-2.048c-0.068-0.736-0.344-1.432-0.828-2.048
	c-0.068-0.736-0.344-1.432-0.828-2.048c-0.068-0.736-0.344-1.432-0.828-2.048c-0.068-0.736-0.344-1.432-0.82-2.048
	c-0.072-0.736-0.352-1.428-0.828-2.044c-0.072-0.74-0.352-1.44-0.828-2.06c-0.072-0.736-0.352-1.432-0.824-2.048
	c-0.076-0.736-0.356-1.432-0.828-2.048c-0.076-0.736-0.356-1.432-0.828-2.048c-0.076-0.736-0.356-1.432-0.828-2.048
	c-0.076-0.736-0.356-1.432-0.828-2.048c-0.084-0.896-0.416-1.772-1.1-2.456c-1.564-1.564-4.092-1.564-5.656,0l-8.548,8.548
	c-54.984-52.344-138.04-58.064-199.148-17.132c0.828,0.296,1.616,0.688,2.436,1.02c-0.536,0.348-1.084,0.672-1.608,1.028
	c0.828,0.296,1.616,0.692,2.436,1.02c-0.536,0.348-1.084,0.672-1.608,1.028c0.828,0.296,1.616,0.688,2.436,1.02
	c-0.536,0.348-1.084,0.672-1.608,1.028c0.828,0.296,1.616,0.692,2.432,1.02c-0.532,0.348-1.08,0.672-1.604,1.028
	c0.828,0.296,1.616,0.688,2.432,1.02c-0.532,0.348-1.08,0.672-1.604,1.028c0.828,0.296,1.612,0.692,2.432,1.02
	c-0.532,0.348-1.084,0.672-1.604,1.028c0.82,0.296,1.612,0.688,2.432,1.016c-0.54,0.348-1.084,0.676-1.612,1.032
	c0.828,0.296,1.62,0.692,2.44,1.02c-0.54,0.348-1.084,0.676-1.612,1.032c0.828,0.296,1.62,0.692,2.432,1.02
	c-0.532,0.348-1.084,0.672-1.604,1.028c0.828,0.296,1.62,0.688,2.432,1.02c-0.532,0.348-1.084,0.672-1.604,1.028
	c0.828,0.296,1.62,0.692,2.432,1.02c-0.532,0.348-1.084,0.672-1.604,1.028c0.828,0.296,1.62,0.688,2.432,1.02
	c-0.532,0.348-1.084,0.672-1.604,1.028c0.828,0.296,1.62,0.692,2.432,1.02c-0.532,0.348-1.084,0.672-1.604,1.028
	c0.824,0.296,1.62,0.688,2.432,1.02c-0.536,0.348-1.084,0.672-1.608,1.028c0.828,0.296,1.624,0.692,2.436,1.02
	c-0.536,0.348-1.084,0.672-1.608,1.028c0.828,0.296,1.624,0.688,2.436,1.02c-0.536,0.348-1.084,0.672-1.608,1.028
	c0.828,0.296,1.624,0.692,2.436,1.02c-0.536,0.348-1.084,0.672-1.608,1.028c0.828,0.296,1.624,0.692,2.444,1.02
	c-0.544,0.348-1.084,0.676-1.616,1.032c0.828,0.296,1.624,0.688,2.436,1.02c-0.536,0.348-1.084,0.672-1.608,1.028
	c0.828,0.296,1.624,0.692,2.432,1.02c-0.532,0.348-1.08,0.672-1.604,1.028c0.828,0.296,1.624,0.688,2.432,1.02
	c-0.532,0.348-1.08,0.672-1.604,1.028c0.828,0.296,1.624,0.688,2.432,1.016c-0.532,0.348-1.08,0.676-1.604,1.032
	c0.828,0.296,1.612,0.688,2.432,1.02c-0.532,0.348-1.08,0.672-1.604,1.028c0.828,0.296,1.612,0.692,2.432,1.02
	c-0.532,0.348-1.08,0.672-1.604,1.028c0.828,0.296,1.612,0.688,2.432,1.02c-0.532,0.348-1.08,0.672-1.604,1.028
	c0.828,0.296,1.612,0.692,2.432,1.02c-0.532,0.348-1.08,0.672-1.604,1.028c0.828,0.296,1.612,0.688,2.432,1.02
	c-0.532,0.348-1.08,0.672-1.604,1.028c0.828,0.296,1.612,0.692,2.432,1.02c-0.532,0.348-1.08,0.672-1.604,1.028
	c0.828,0.296,1.62,0.692,2.432,1.02c-0.532,0.348-1.08,0.676-1.604,1.032c0.828,0.296,1.612,0.688,2.432,1.02
	c-0.532,0.348-1.08,0.672-1.604,1.028c0.824,0.296,1.612,0.692,2.432,1.02c-0.532,0.348-1.08,0.672-1.608,1.028
	c0.828,0.296,1.616,0.688,2.436,1.02c-0.532,0.348-1.08,0.672-1.608,1.028c0.82,0.296,1.616,0.692,2.436,1.02
	c-0.54,0.348-1.08,0.672-1.608,1.028c0.828,0.296,1.624,0.692,2.436,1.02c-0.532,0.352-1.08,0.676-1.608,1.032
	c0.828,0.296,1.624,0.692,2.436,1.02c-0.532,0.352-1.08,0.676-1.608,1.032c0.82,0.292,1.616,0.692,2.436,1.02
	c-0.54,0.348-1.08,0.672-1.608,1.028c0.82,0.296,1.616,0.692,2.436,1.02c-0.54,0.348-1.084,0.676-1.616,1.032
	c0.828,0.296,1.624,0.692,2.436,1.02c-0.532,0.348-1.08,0.672-1.608,1.028c0.828,0.296,1.624,0.692,2.444,1.02
	c-0.54,0.352-1.084,0.676-1.616,1.032c0.828,0.292,1.624,0.692,2.436,1.02c-0.532,0.348-1.08,0.672-1.608,1.028
	c0.828,0.296,1.624,0.692,2.444,1.02c-0.54,0.352-1.084,0.676-1.616,1.032c0.828,0.296,1.624,0.692,2.436,1.02
	c-0.532,0.348-1.08,0.672-1.608,1.028c0.828,0.296,1.624,0.692,2.444,1.02c-0.54,0.352-1.084,0.676-1.616,1.032
	c0.828,0.296,1.624,0.692,2.444,1.02c-0.54,0.352-1.084,0.676-1.616,1.032c0.828,0.296,1.624,0.692,2.436,1.02
	c-0.532,0.348-1.08,0.672-1.608,1.028c0.828,0.296,1.624,0.692,2.444,1.02c-0.54,0.352-1.084,0.676-1.616,1.032
	c0.828,0.292,1.624,0.692,2.436,1.02c-0.532,0.348-1.08,0.672-1.608,1.028c0.828,0.296,1.624,0.692,2.444,1.02
	c-0.54,0.352-1.084,0.676-1.616,1.032c0.828,0.296,1.624,0.692,2.436,1.02c-0.532,0.348-1.08,0.672-1.608,1.028
	c0.828,0.296,1.624,0.692,2.444,1.02c-0.54,0.352-1.084,0.676-1.616,1.032c0.828,0.292,1.624,0.692,2.436,1.02
	c-0.532,0.348-1.084,0.672-1.608,1.028c0.828,0.296,1.624,0.692,2.436,1.02c-0.532,0.348-1.084,0.676-1.608,1.032
	c0.82,0.296,1.616,0.692,2.436,1.02c-0.54,0.348-1.084,0.672-1.608,1.028c0.828,0.296,1.624,0.692,2.436,1.02
	c-0.532,0.352-1.084,0.676-1.608,1.032c0.828,0.296,1.624,0.692,2.436,1.02c-0.532,0.352-1.084,0.676-1.608,1.032
	c0.82,0.296,1.616,0.692,2.436,1.02c-0.54,0.348-1.084,0.672-1.608,1.028c0.828,0.296,1.624,0.692,2.436,1.02
	c-0.532,0.352-1.084,0.676-1.608,1.032c0.82,0.292,1.616,0.692,2.436,1.02c-0.544,0.348-1.084,0.672-1.608,1.028
	c0.828,0.296,1.624,0.692,2.436,1.02c-0.532,0.352-1.084,0.676-1.608,1.032c0.82,0.296,1.616,0.692,2.436,1.02
	c-0.544,0.348-1.084,0.672-1.608,1.028c0.828,0.296,1.624,0.692,2.436,1.02c-0.536,0.352-1.084,0.676-1.608,1.032
	c0.82,0.296,1.616,0.696,2.436,1.024c-0.544,0.344-1.084,0.672-1.608,1.024c0.828,0.296,1.624,0.696,2.436,1.024
	c-0.536,0.352-1.084,0.672-1.608,1.032c0.828,0.296,1.624,0.692,2.436,1.02c-0.536,0.352-1.084,0.676-1.608,1.032
	c0.82,0.292,1.616,0.692,2.436,1.02c-0.544,0.352-1.084,0.672-1.608,1.032c0.828,0.292,1.624,0.688,2.432,1.016
	c-0.532,0.352-1.08,0.68-1.604,1.036c0.82,0.292,1.616,0.692,2.432,1.02c-0.54,0.348-1.08,0.672-1.604,1.028
	c0.82,0.296,1.612,0.692,2.432,1.02c-0.54,0.348-1.084,0.676-1.612,1.032c0.828,0.292,1.62,0.696,2.432,1.024
	c-0.532,0.344-1.084,0.672-1.604,1.024c0.828,0.296,1.62,0.696,2.44,1.024c-0.54,0.352-1.084,0.676-1.612,1.032
	c0.828,0.296,1.62,0.692,2.432,1.02c-0.532,0.348-1.084,0.672-1.604,1.028c0.828,0.296,1.62,0.696,2.44,1.024
	c-0.54,0.352-1.084,0.672-1.612,1.032c0.828,0.296,1.62,0.688,2.44,1.016c-0.54,0.356-1.084,0.68-1.612,1.036
	c0.828,0.292,1.62,0.692,2.432,1.02c-0.532,0.348-1.084,0.672-1.604,1.028c0.808,0.288,1.588,0.68,2.392,1l-0.14,0.144
	c-0.476,0.308-0.952,0.592-1.42,0.908c0.124,0.048,0.248,0.104,0.36,0.156l-81.032,81.076c-6.124,6.12-7.368,15.228-3.876,22.64
	c0.236,0.696,0.508,1.376,0.82,2.048c0.244,0.7,0.516,1.38,0.828,2.052c0.244,0.7,0.516,1.38,0.836,2.06
	c0.236,0.696,0.508,1.368,0.82,2.04c0.244,0.704,0.516,1.384,0.836,2.06c0.236,0.692,0.5,1.36,0.812,2.028
	c0.244,0.704,0.516,1.392,0.836,2.072c0.236,0.696,0.508,1.376,0.828,2.048c0.236,0.7,0.508,1.38,0.828,2.056
	c0.236,0.696,0.508,1.376,0.828,2.048c0.236,0.696,0.508,1.376,0.828,2.056c0.236,0.696,0.508,1.372,0.828,2.044
	c0.236,0.7,0.508,1.38,0.828,2.052c0.236,0.704,0.508,1.384,0.828,2.056c0.236,0.7,0.508,1.376,0.828,2.048
	c0.236,0.7,0.508,1.38,0.828,2.056c0.236,0.696,0.508,1.376,0.828,2.048c0.236,0.696,0.508,1.38,0.828,2.056
	c0.236,0.696,0.508,1.372,0.828,2.044c0.236,0.7,0.508,1.38,0.828,2.06c0.236,0.688,0.508,1.36,0.82,2.024
	c0.236,0.708,0.508,1.392,0.824,2.072c0.248,0.7,0.52,1.38,0.84,2.056c0.236,0.696,0.508,1.376,0.816,2.048
	c0.248,0.7,0.52,1.38,0.836,2.056c0.24,0.696,0.512,1.372,0.82,2.044c0.248,0.7,0.516,1.38,0.836,2.06
	c0.24,0.696,0.508,1.372,0.82,2.044c0.248,0.7,0.516,1.38,0.836,2.056c0.24,0.7,0.508,1.372,0.82,2.044
	c0.248,0.704,0.516,1.384,0.828,2.056c0.248,0.7,0.516,1.38,0.836,2.056c0.24,0.696,0.508,1.372,0.82,2.048
	c0.248,0.696,0.516,1.376,0.836,2.056c0.24,0.696,0.508,1.372,0.82,2.044c0.236,0.696,0.508,1.368,0.82,2.04
	c0.244,0.7,0.516,1.388,0.836,2.06c0.236,0.704,0.508,1.384,0.828,2.06c0.236,0.696,0.508,1.372,0.824,2.044
	c0.24,0.704,0.512,1.384,0.828,2.056c0.24,0.696,0.512,1.376,0.828,2.056c0.24,0.696,0.508,1.372,0.828,2.044
	c0.24,0.7,0.508,1.38,0.828,2.06c0.24,0.696,0.508,1.368,0.828,2.04c0.24,0.704,0.508,1.384,0.828,2.06
	c0.24,0.696,0.508,1.372,0.828,2.044c0.24,0.704,0.508,1.384,0.828,2.056c0.24,0.7,0.508,1.376,0.828,2.048
	c0.24,0.7,0.508,1.38,0.828,2.056c0.24,0.696,0.508,1.376,0.828,2.048c0.24,0.688,0.508,1.368,0.82,2.032
	c0.236,0.708,0.516,1.396,0.836,2.076c0.236,0.696,0.508,1.372,0.82,2.044c0.244,0.704,0.516,1.384,0.836,2.056
	c0.056,0.172,0.132,0.328,0.196,0.492C208.764,508.62,231.984,512,256,512c93.788,0,175.752-50.464,220.336-125.692
	C476.228,385.692,475.992,385.092,475.584,384.572z"/>
<path style="fill:#242424;" d="M159.836,402.78c-5.116,0-10.244-1.944-14.14-5.844c-7.796-7.8-7.796-20.492,0-28.284L371.968,142.38
	c1.564-1.564,4.092-1.564,5.656,0s1.564,4.092,0,5.656L151.352,374.308c-4.676,4.676-4.676,12.292,0,16.972
	c4.68,4.68,12.288,4.68,16.968,0c1.564-1.564,4.092-1.564,5.656,0s1.564,4.088,0,5.656
	C170.08,400.836,164.956,402.78,159.836,402.78z"/>
<path style="fill:#2D4452;" d="M205.092,218.748c26.804-5.116,53.5,1.172,74.252,21.916c20.744,20.744,27.032,47.444,21.916,74.252
	c22.992-8.576,119.984-106.288,65.06-161.224C311.392,98.76,213.664,195.756,205.092,218.748z"/>
<path style="fill:#CC584C;" d="M366.312,153.692c-54.928-54.928-139.86-61.548-202.04-19.896c8.728,3.12,16.944,8.1,23.924,15.092
	c18.484,18.48,25.46,46.868,16.896,69.856C267.32,145.208,340.86,145.208,366.312,153.692z"/>
<path style="fill:#FFD464;" d="M366.312,153.692c54.928,54.928,61.548,139.856,19.9,202.044c-3.124-8.732-8.1-16.94-15.092-23.932
	c-18.48-18.48-46.868-25.456-69.86-16.888C374.796,252.688,374.796,179.148,366.312,153.692z"/>
<g>
</g>
<g>
</g>
<g>
</g>
<g>
</g>
<g>
</g>
<g>
</g>
<g>
</g>
<g>
</g>
<g>
</g>
<g>
</g>
<g>
</g>
<g>
</g>
<g>
</g>
<g>
</g>
<g>
</g>
</svg>
